PathFileType	4	(X/Y/Z)	C:\Users\Basilio\Documents\Thesis Gigler\squatting_fais\c3dfiles\058\SLS_front_pre2\markers_experimental.trc
DataRate	CameraRate	NumFrames	NumMarkers	Units	OrigDataRate	OrigDataStartFrame	OrigNumFrames
200.000000	200.000000	4	61	mm	200.000000	626	1252
Frame#	Time	FHD			LBHD			RBHD			C7			T10			CLAV			LSHO			LUUPA			LMUPA			LDUPA			LLEP			LMEP			LUL			LRFIN			RSHO			RUPA1			RMUPA			RDUPA			RLEP			RMEP			RRAD			RUL			RUFIN			LASI			RASI			USACR			LSACR			RSACR			LTHI1			LTHI2			LTHI3			LTHI4			LLFC			LMFC			LTIB1			LTIB2			LTIB3			LTIB4			LLMAL			LMMAL			LHEE			LMT1			LMT2			LMT5			RTHI			RTHI2			RTHI3			RTHI4			RLFC			RMFC			RTIB2			RTIB3			RTIB4			RLMAL			RMMAL			RHEE			RMT1			RMT2			RMT5			RTIB1			LRAD			
		X1	Y1	Z1	X2	Y2	Z2	X3	Y3	Z3	X4	Y4	Z4	X5	Y5	Z5	X6	Y6	Z6	X7	Y7	Z7	X8	Y8	Z8	X9	Y9	Z9	X10	Y10	Z10	X11	Y11	Z11	X12	Y12	Z12	X13	Y13	Z13	X14	Y14	Z14	X15	Y15	Z15	X16	Y16	Z16	X17	Y17	Z17	X18	Y18	Z18	X19	Y19	Z19	X20	Y20	Z20	X21	Y21	Z21	X22	Y22	Z22	X23	Y23	Z23	X24	Y24	Z24	X25	Y25	Z25	X26	Y26	Z26	X27	Y27	Z27	X28	Y28	Z28	X29	Y29	Z29	X30	Y30	Z30	X31	Y31	Z31	X32	Y32	Z32	X33	Y33	Z33	X34	Y34	Z34	X35	Y35	Z35	X36	Y36	Z36	X37	Y37	Z37	X38	Y38	Z38	X39	Y39	Z39	X40	Y40	Z40	X41	Y41	Z41	X42	Y42	Z42	X43	Y43	Z43	X44	Y44	Z44	X45	Y45	Z45	X46	Y46	Z46	X47	Y47	Z47	X48	Y48	Z48	X49	Y49	Z49	X50	Y50	Z50	X51	Y51	Z51	X52	Y52	Z52	X53	Y53	Z53	X54	Y54	Z54	X55	Y55	Z55	X56	Y56	Z56	X57	Y57	Z57	X58	Y58	Z58	X59	Y59	Z59	X60	Y60	Z60	X61	Y61	Z61	

627	3.13	-272.3980102539063	1611.637817382813	-616.2955932617189	-423.7953186035157	1549.385620117188	-692.1769409179689	-258.4944458007813	1619.663696289063	-758.1027832031251	-440.1527404785157	1418.052978515625	-705.4113159179689	-530.1336059570314	1131.588256835938	-703.0092163085939	-290.1650085449219	1349.460205078125	-688.5022583007814	-290.2731933593751	1404.68115234375	-841.1098632812502	-150.8741607666016	1331.37255859375	-962.5062255859377	-122.0441513061524	1366.514526367188	-939.155212402344	-80.6627883911133	1329.942626953125	-962.3795166015627	-2.808181285858155	1330.1923828125	-953.1765747070315	0.8547558784484866	1272.973876953125	-921.9326171875002	267.1898803710938	1364.409912109375	-917.7529907226565	360.4370117187501	1359.378784179688	-837.1044921875002	-308.4776611328126	1407.26513671875	-539.8242797851564	-162.2778930664063	1318.54150390625	-424.4193725585939	-137.3694458007813	1356.233032226563	-447.0932922363282	-93.0869598388672	1325.108032226563	-422.4752502441407	-24.69647979736329	1315.393920898438	-427.1833801269532	-15.45237445831299	1257.523681640625	-477.9180908203126	245.5190429687501	1351.045654296875	-511.6564025878907	244.7049407958985	1363.16357421875	-430.9898071289064	336.9789733886719	1374.691772460938	-498.9693603515626	-388.0478515625001	928.8616333007815	-850.6979980468752	-381.9288330078126	908.5297851562502	-616.2980346679689	-571.8930053710939	1000.020812988281	-712.4926147460939	-583.5394287109376	971.343933105469	-741.8848876953126	-579.8403930664064	966.2359619140627	-684.3262939453126	-291.0834350585938	724.6568603515626	-931.4160156250002	-216.5368194580079	685.3309936523439	-923.1821899414065	-185.5342407226563	710.6098632812501	-892.5048828125002	-202.6764526367188	626.9550170898439	-917.8506469726565	-132.7001953125	556.9993896484376	-908.483581542969	-120.1738204956055	552.6500854492189	-780.706237792969	-2.38797926902771	494.2634887695314	-869.6217041015627	-10.85109901428223	438.2679443359376	-932.1660766601565	21.36252593994141	454.3059692382814	-905.3363037109377	78.03920745849611	394.7983703613282	-883.6233520507815	167.0309753417969	211.8612670898438	-911.836608886719	177.981918334961	230.2937469482422	-821.3599243164065	140.4969940185547	142.677490234375	-864.6055908203127	325.8276977539063	261.1518249511719	-836.673034667969	329.2796325683594	271.0705871582032	-882.003356933594	304.1807250976563	229.3945007324219	-938.1729125976565	-380.7449645996094	709.0139770507814	-548.2815551757814	-316.4754333496094	689.5898437500001	-547.9819335937501	-290.0945739746094	708.5488891601564	-550.6348266601564	-290.3901977539063	612.1737670898439	-569.3204956054689	-192.1444854736329	482.5111694335939	-596.2083129882814	-160.3897857666016	494.5348510742189	-728.4535522460939	-272.8973693847657	243.4458160400391	-648.0339965820314	-244.3164367675782	229.6737670898438	-683.8840332031251	-271.0648193359376	198.6712036132813	-724.1237792968751	-364.7498474121094	112.1003723144532	-690.0668945312501	-331.7987670898438	139.2817535400391	-773.5717773437502	-436.5557250976564	102.0262908935547	-756.2595214843751	-228.001205444336	62.25493621826173	-766.2238159179689	-223.1364288330079	58.78620529174806	-713.9035034179689	-271.4241027832032	26.02695083618165	-664.2772216796876	-206.4086608886719	309.0621948242188	-708.7445678710939	261.0360107421876	1335.150390625	-840.9758300781252	
628	3.135	-272.0554809570313	1610.290161132813	-616.4487304687501	-423.3479309082032	1548.3134765625	-692.3720092773439	-258.0145263671876	1618.582763671875	-758.0006713867189	-439.7100219726564	1416.926635742188	-705.2640991210939	-530.2554931640626	1130.717407226563	-703.0578002929689	-289.5610961914063	1348.20068359375	-688.6138916015626	-289.6175842285157	1403.515258789063	-841.1883544921877	-150.5156402587891	1330.110961914063	-962.8156738281252	-121.567123413086	1365.406372070313	-939.1311035156252	-80.24243164062501	1328.797241210938	-962.4400024414065	-2.420104265213013	1328.983154296875	-953.121276855469	0.9006442427635195	1271.533325195313	-921.5925903320315	267.8735961914063	1363.553466796875	-917.968688964844	361.0569763183594	1358.010986328125	-837.0618896484377	-307.8014831542969	1406.12939453125	-539.9551391601564	-161.7189483642578	1317.087280273438	-424.4866027832032	-136.7969360351563	1354.9794921875	-447.0133056640626	-92.67305755615236	1323.753540039063	-422.6571655273439	-24.03231620788575	1314.224731445313	-427.3416442871095	-15.43497848510743	1256.32958984375	-478.3807373046876	246.2420043945313	1350.178100585938	-511.7295837402345	245.0924377441407	1362.073852539063	-430.9888000488282	337.2125549316407	1373.387084960938	-499.210174560547	-388.4889221191407	927.8626098632815	-850.6943969726565	-382.0798339843751	907.7820434570315	-616.3336181640626	-572.2645874023439	999.0784912109377	-712.3680419921876	-583.9993896484376	970.4893798828127	-741.8199462890626	-580.5613403320314	965.308288574219	-684.1215820312501	-291.6027832031251	723.7354125976564	-931.3667602539065	-216.8772277832032	684.5409545898439	-923.2078857421877	-185.6896209716797	710.3366699218751	-892.6577148437502	-203.0020904541016	626.2454833984376	-917.7413330078127	-133.1671600341797	556.3790893554689	-908.3477783203127	-120.1997909545899	552.4767456054689	-780.577087402344	-2.709558725357056	493.9504699707032	-869.649597167969	-11.12486743927002	437.5343017578126	-932.0532226562502	21.21418952941895	453.7042846679689	-905.2978515625002	77.69692993164064	394.3515930175782	-883.5252075195315	167.0536193847657	211.4339904785157	-911.5092773437502	177.9880523681641	230.0503540039063	-821.0759277343752	140.1596374511719	142.2924499511719	-863.9253540039065	325.8158264160157	261.0389709472657	-836.5731201171877	329.2174072265626	270.8437500000001	-881.870788574219	304.1910400390626	228.9710083007813	-938.083679199219	-381.2801208496094	707.9840087890626	-548.3119506835939	-316.3149414062501	688.9769287109376	-548.2739257812501	-290.3455200195313	708.0467529296876	-550.8983764648439	-290.0715637207032	611.5009765625001	-569.9136352539064	-191.673095703125	482.2988281250001	-596.8577270507814	-160.2791137695313	494.379364013672	-729.1020507812501	-272.5937500000001	243.2694702148438	-648.5999755859376	-244.2410736083985	229.4642028808594	-684.1916503906251	-270.8849487304688	198.5515594482422	-724.5026245117189	-364.6577148437501	112.1733169555664	-690.3141479492189	-331.9378967285157	139.1069946289063	-773.9629516601565	-436.6002197265626	101.9333648681641	-756.2770996093751	-228.028793334961	62.10918426513673	-766.3694458007814	-223.1268920898438	58.77788162231447	-713.9801635742189	-271.4186401367188	26.06059265136719	-664.3119506835939	-206.1986541748047	308.9534912109376	-709.3522338867189	261.5356140136719	1333.88134765625	-840.8218383789065	
629	3.14	-271.6215820312501	1609.212890625	-616.2213134765626	-422.8139953613282	1546.941528320313	-692.5883789062501	-257.4134521484376	1617.39306640625	-758.0244750976564	-439.1703491210939	1415.926513671875	-705.4294433593751	-530.3660888671876	1129.899291992188	-702.9669799804689	-288.9992065429688	1346.9775390625	-688.6375122070314	-289.0953674316407	1402.106567382813	-841.3013305664065	-150.17041015625	1329.016845703125	-962.581237792969	-120.9783020019532	1364.1953125	-939.1172485351565	-79.87795257568361	1327.534790039063	-962.451110839844	-1.904445290565491	1327.670043945313	-953.2175903320315	2.281261682510376	1270.274536132813	-922.4652099609377	268.1304626464844	1361.815795898438	-917.6824951171877	361.5134887695313	1356.923706054688	-837.0750732421877	-306.9703674316407	1404.981201171875	-539.8680419921876	-160.9310760498047	1316.257568359375	-424.5202941894532	-136.4044036865235	1353.647705078125	-447.2431945800782	-92.06683349609376	1322.629150390625	-422.7262573242189	-23.64186096191407	1313.154296875	-427.2443847656251	-15.03967952728272	1254.89013671875	-478.4096984863282	246.4113769531251	1349.126586914063	-511.6717529296876	245.4952545166016	1360.857055664063	-431.0583496093751	338.0406799316407	1372.964599609375	-498.9742126464845	-388.9620666503907	926.8870239257815	-850.776794433594	-382.6966552734376	906.9851074218752	-616.4243164062501	-572.7818603515626	998.1738281250002	-712.3983764648439	-584.4146728515626	969.6140136718752	-741.7252197265626	-580.7487792968751	964.3755493164065	-684.0997924804689	-292.3155212402344	722.9184570312501	-931.3157958984377	-217.2915802001954	683.7296752929689	-923.1055908203127	-186.536849975586	709.4928588867189	-892.7242431640627	-204.4267578125001	625.2124023437501	-917.4556274414065	-133.533187866211	555.7877807617189	-908.2630004882815	-120.289047241211	552.2601318359376	-780.442321777344	-2.881089687347413	493.4925842285157	-869.6185302734377	-11.39877796173096	436.9715576171876	-931.9180297851565	20.97632026672364	453.2266235351564	-905.2295532226565	77.52767944335939	394.0281066894532	-883.542175292969	166.9009246826172	210.9289855957032	-911.1365966796877	178.0055847167969	229.7358856201172	-820.836853027344	140.2153472900391	141.899169921875	-863.5681152343752	325.8027954101563	260.8912658691407	-836.510925292969	329.0661621093751	270.4717407226563	-881.7981567382815	304.0910644531251	228.5984344482422	-937.9868774414065	-381.3383789062501	706.8568725585939	-548.4624633789064	-316.3945007324219	688.2049560546876	-548.5283203125001	-290.4956665039063	707.6964111328126	-551.1137695312501	-289.8900451660157	611.2326660156251	-570.1899414062501	-191.2391204833985	482.1784057617189	-597.5815429687501	-160.2319488525391	494.202117919922	-729.7792968750001	-272.2118835449219	243.3610076904297	-649.1246337890626	-243.613754272461	229.4409179687501	-684.7354736328126	-270.8851928710938	198.4132690429688	-724.8325805664064	-364.6363220214844	112.1524810791016	-690.5356445312501	-332.1493225097657	138.905990600586	-774.317321777344	-436.5528564453126	101.9798736572266	-756.3463134765626	-228.0167999267579	61.85616683959962	-766.4577026367189	-223.0781707763672	58.86179733276369	-714.0552368164064	-271.3257751464844	26.24007034301759	-664.3762207031251	-205.9285888671876	308.8162231445313	-709.9525756835939	261.9408264160157	1332.884643554688	-841.0371093750002	
630	3.145	-271.2280578613282	1607.822631835938	-616.2918701171876	-422.1512756347657	1545.7421875	-692.6937255859376	-257.0882568359376	1616.17138671875	-758.1035766601564	-438.511199951172	1414.64892578125	-705.4404907226564	-530.4677124023439	1129.10791015625	-702.9539794921876	-288.4310607910157	1345.678833007813	-688.6852416992189	-288.8160095214844	1400.909912109375	-841.1917114257815	-149.5564270019532	1327.77685546875	-962.8540039062502	-120.6090774536133	1362.899536132813	-939.1325683593752	-79.29837036132814	1326.312255859375	-962.5372314453127	-1.318323493003845	1326.352661132813	-953.2905883789065	2.305352210998536	1268.838134765625	-922.0903320312502	268.9106750488282	1360.931762695313	-917.9547119140627	362.0985717773438	1355.709594726563	-837.039733886719	-306.5574340820313	1403.969360351563	-540.1178588867189	-160.6920013427735	1314.916870117188	-424.5341186523439	-135.958236694336	1352.598754882813	-447.1033630371095	-91.47295379638673	1321.269287109375	-422.7191772460939	-23.34302139282227	1311.809448242188	-427.1925354003907	-14.37618064880371	1253.8408203125	-478.4131774902345	247.1083221435547	1348.1591796875	-511.7538146972657	246.2429656982422	1360.052124023438	-430.9100952148439	338.9628906250001	1371.876586914063	-498.6850891113282	-389.8441162109376	925.7976684570315	-850.6873168945315	-383.2886962890626	905.8731079101565	-616.4062500000001	-573.1420898437501	997.577575683594	-712.2701416015626	-584.8036499023439	968.8970336914065	-741.6512451171876	-581.1801757812501	963.6956176757815	-683.9692993164064	-292.7770080566407	722.2603759765626	-931.2583007812502	-217.8817291259766	683.0990600585939	-923.1477661132815	-186.6549987792969	708.8065185546876	-892.902038574219	-204.0145721435547	624.5142822265626	-917.5921020507815	-133.7979736328125	555.1774902343751	-908.2867431640627	-120.8111953735352	551.9071655273439	-780.3885498046877	-3.332128763198853	492.7709960937501	-869.7121582031252	-11.82959938049317	436.3621520996095	-931.7888183593752	20.57954025268555	452.6945190429689	-905.1572875976565	77.23017883300783	393.4939575195314	-883.480895996094	166.7706146240235	210.6422882080079	-910.9213867187502	178.0130157470703	229.4308776855469	-820.565124511719	140.3753662109375	141.6244812011719	-863.1729125976565	325.1804504394532	260.2580871582032	-836.661560058594	329.0039062500001	270.3064270019532	-881.7329711914065	304.1610717773438	228.3871459960938	-937.9324340820315	-381.2155761718751	706.2173461914064	-548.6885375976564	-316.1610107421876	687.5783691406251	-548.9303588867189	-290.3667907714844	707.0703735351564	-551.4433593750001	-289.5575561523438	610.6890258789064	-570.5093383789064	-191.0837860107422	481.9818725585939	-598.1803588867189	-160.0005187988282	494.1326293945314	-730.2913208007814	-271.8562927246094	243.2555084228516	-649.4859619140626	-243.2911071777344	229.631332397461	-685.3366088867189	-270.9788208007813	198.5351104736329	-725.2302246093751	-364.6130065917969	112.1894836425782	-690.6601562500001	-332.3316650390626	138.8184661865235	-774.6024169921877	-436.5292358398439	101.8506698608399	-756.4252319335939	-227.9617767333985	61.71543121337892	-766.5198974609376	-223.0852661132813	58.85474395751955	-714.1983642578126	-271.2831726074219	26.40739250183106	-664.4476928710939	-205.7541961669922	308.6644287109376	-710.4699707031251	262.4908752441407	1331.55712890625	-841.2310791015627	
